<?xml version="1.0" encoding="UTF-8"?>
<svg xmlns="http://www.w3.org/2000/svg" xmlns:xlink="http://www.w3.org/1999/xlink" width="810pt" height="809.999993pt" viewBox="0 0 810 809.999993" version="1.2">
<defs>
<clipPath id="clip1">
  <path d="M 255.351562 243 L 554.601562 243 L 554.601562 567 L 255.351562 567 Z M 255.351562 243 "/>
</clipPath>
</defs>
<g id="surface1">
<g clip-path="url(#clip1)" clip-rule="nonzero">
<path style=" stroke:none;fill-rule:nonzero;fill:rgb(100%,100%,100%);fill-opacity:1;" d="M 267.917969 567 L 317.757812 567 L 317.757812 554.539062 L 492.199219 554.539062 L 492.199219 567 L 542.039062 567 L 542.039062 554.539062 L 554.5 554.539062 L 554.5 243 L 255.457031 243 L 255.457031 554.539062 L 267.917969 554.539062 Z M 267.917969 255.460938 L 542.039062 255.460938 L 542.039062 342.691406 L 267.917969 342.691406 Z M 267.917969 355.152344 L 542.039062 355.152344 L 542.039062 442.382812 L 267.917969 442.382812 Z M 267.917969 454.847656 L 542.039062 454.847656 L 542.039062 542.078125 L 267.917969 542.078125 Z M 267.917969 454.847656 "/>
</g>
<path style=" stroke:none;fill-rule:nonzero;fill:rgb(100%,100%,100%);fill-opacity:1;" d="M 442.359375 292.847656 L 367.597656 292.847656 L 367.597656 280.382812 L 355.136719 280.382812 L 355.136719 305.308594 L 454.816406 305.308594 L 454.816406 280.382812 L 442.359375 280.382812 Z M 442.359375 292.847656 "/>
<path style=" stroke:none;fill-rule:nonzero;fill:rgb(100%,100%,100%);fill-opacity:1;" d="M 442.359375 392.539062 L 367.597656 392.539062 L 367.597656 380.078125 L 355.136719 380.078125 L 355.136719 405 L 454.816406 405 L 454.816406 380.078125 L 442.359375 380.078125 Z M 442.359375 392.539062 "/>
<path style=" stroke:none;fill-rule:nonzero;fill:rgb(100%,100%,100%);fill-opacity:1;" d="M 442.359375 492.230469 L 367.597656 492.230469 L 367.597656 479.769531 L 355.136719 479.769531 L 355.136719 504.691406 L 454.816406 504.691406 L 454.816406 479.769531 L 442.359375 479.769531 Z M 442.359375 492.230469 "/>
</g>
</svg>
